# xmcd
#
# Track frame offsets: 
#        150
#        30993
#        62360
#        92993
#        123815
#        154775
#        176723
#        207183
#        237915
#        280390
#        319470
#
# Disc length: 4682 seconds
#
# Revision: 0
# Processed by: cddbd v1.5.1PL2 Copyright (c) Steve Scherf et al.
# Submitted via: ExactAudioCopy v0.95b3
#
DISCID=9312480b
DTITLE=Various Artist - The Pioneer DJ-Friendly Un-Mixed CD
DYEAR=1997
DGENRE=House
TTITLE0=B.B.E/Seven Days And One Week [Dex N Jonesey Philharmonic Mix]
TTITLE1=DJ Quicksilver/Bellissima [Club Mix]
TTITLE2=Fletch/The Party [Natural Born Groove's Remix]
TTITLE3=Reel 2 Reel/Move Your Body (Mueve La Cadera) [Tin Tin Out Mix]
TTITLE4=Natural Born Grooves/Groovebird [Klubbheads Klubb Mix]
TTITLE5=DJ Philip/Techno Solutions [Original Club Mix]
TTITLE6=Baby Doc/La Batteria (The Drum Track) [12" Mix]
TTITLE7=Brainbug/Nightmare [Sinister Strings Mix]
TTITLE8=Qattara/Come With Me [Qattara Vocal Mix]
TTITLE9=The Lisa Marie Experience/Do That To Me [The Lisa Marie Experi
TTITLE9=ence Mix part 1]
TTITLE10=Jeremy Healy and Amos/Stamp! [Natural Born Grooves Remix]
EXTD=
EXTT0=
EXTT1=
EXTT2=
EXTT3=
EXTT4=
EXTT5=
EXTT6=
EXTT7=
EXTT8=
EXTT9=
EXTT10=
PLAYORDER=
